<svg xmlns="http://www.w3.org/2000/svg" xmlns:xlink="http://www.w3.org/1999/xlink" id="Layer_1" x="0" y="0" version="1.1" viewBox="0 0 98.7 128" xml:space="preserve" style="enable-background:new 0 0 98.7 128"><style type="text/css">.st0{fill:#2a638c}.st1{stroke:#000;stroke-width:.25;stroke-miterlimit:10}.st1,.st2{fill:#f2f2f2}.st3{fill:#b3b3b3}</style><polygon points="98.7 0 98.7 38.4 83.7 53.5 83.7 128 26.1 128 0 101.9 0 0" class="st0"/><line x1="79.3" x2="78.8" y1="113.3" y2="112.8" class="st1"/><rect width="59.5" height="1.8" x="12.1" y="63.1" class="st2"/><rect width="59.5" height="1.8" x="12.1" y="38.2" class="st2"/><rect width="59.5" height="1.8" x="12.1" y="50.6" class="st2"/><rect width="59.5" height="1.8" x="12.1" y="25.8" class="st2"/><rect width="59.5" height="1.8" x="12.1" y="100.7" class="st2"/><rect width="59.5" height="1.8" x="12.1" y="75.8" class="st2"/><rect width="59.5" height="1.8" x="12.1" y="88.3" class="st2"/><rect width="59.5" height="1.8" x="12.1" y="13.3" class="st2"/><rect width="50.3" height="1.8" x="21.3" y="114.5" class="st2"/><polygon points="26.1 101.9 26.1 128 0 101.9" class="st3"/></svg>