<svg xmlns="http://www.w3.org/2000/svg" xmlns:xlink="http://www.w3.org/1999/xlink" id="Layer_1" x="0" y="0" version="1.1" viewBox="0 0 12.3 16" xml:space="preserve" style="enable-background:new 0 0 12.3 16"><style type="text/css">.st0{fill:#2a638c}.st1{stroke:#000;stroke-width:.25;stroke-miterlimit:10}.st1,.st2{fill:#f2f2f2}.st3{fill:#b3b3b3}</style><polygon points="12.3 0 12.3 4.8 10.5 6.7 10.5 16 3.3 16 0 12.7 0 0" class="st0"/><line x1="9.9" x2="9.8" y1="14.2" y2="14.1" class="st1"/><rect width="7.4" height=".2" x="1.5" y="7.9" class="st2"/><rect width="7.4" height=".2" x="1.5" y="4.8" class="st2"/><rect width="7.4" height=".2" x="1.5" y="6.3" class="st2"/><rect width="7.4" height=".2" x="1.5" y="3.2" class="st2"/><rect width="7.4" height=".2" x="1.5" y="12.6" class="st2"/><rect width="7.4" height=".2" x="1.5" y="9.5" class="st2"/><rect width="7.4" height=".2" x="1.5" y="11" class="st2"/><rect width="7.4" height=".2" x="1.5" y="1.7" class="st2"/><rect width="6.3" height=".2" x="2.7" y="14.3" class="st2"/><polygon points="3.3 12.7 3.3 16 0 12.7" class="st3"/></svg>