<?xml version="1.0" encoding="utf-8"?>
<!-- Generator: Adobe Illustrator 21.0.0, SVG Export Plug-In . SVG Version: 6.00 Build 0)  -->
<svg version="1.1" id="Layer_1" xmlns="http://www.w3.org/2000/svg" xmlns:xlink="http://www.w3.org/1999/xlink" x="0px" y="0px"
	 viewBox="0 0 357 256" style="enable-background:new 0 0 357 256;" xml:space="preserve">
<style type="text/css">
	.st0{fill:#3FD8C9;}
	.st1{fill:#FFFFFF;}
</style>
<g>
	<path class="st0" d="M133.7,35c-10.9,0-21.4-4.3-29.1-12L81.7,0H0v256l102.9-102.9c6.6-6.6,15.6-10.3,25-10.3H256V35H133.7z"/>
	<path class="st0" d="M354.4,157.5L256,256H0l47.2-47.2l18.5-18.5l37.2-37.2c0.5-0.5,1-1,1.5-1.4c5.2-4.6,11.6-7.6,18.5-8.6
		c1.6-0.2,3.3-0.4,5-0.4h220.4C356,142.7,359.9,152.1,354.4,157.5z"/>
</g>
<path class="st1" d="M242.5,58.3v84.4H127.9c-1.7,0-3.3,0.1-5,0.4c-6.8,1-13.3,3.9-18.5,8.6c-0.5,0.4-1,0.9-1.5,1.4l-37.2,37.2
	l-18.5,18.5l-32.4,32.4h-1.3V58.3H242.5z"/>
<path d="M133.1,75.6v67.1h-5.2c-1.7,0-3.3,0.1-5,0.4V75.6H133.1z"/>
<polygon points="75.9,75.6 75.9,180.1 65.7,190.3 65.7,75.6 "/>
<path d="M128,223.9"/>
<path d="M70.8,223.9"/>
<path d="M70.8,223.9"/>
<path d="M13.5,223.9"/>
<polygon points="47.2,75.6 47.2,208.8 37.1,218.9 37.1,75.6 "/>
<path d="M104.5,75.6v76.1c-0.5,0.4-1,0.9-1.5,1.4l-8.6,8.6V75.6H104.5z"/>
<rect x="208.8" y="75.6" width="10.2" height="67.1"/>
<rect x="151.5" y="75.6" width="10.2" height="67.1"/>
<path d="M128,223.9"/>
<path d="M128,75.6"/>
<rect x="180.1" y="75.6" width="10.2" height="67.1"/>
</svg>
