<svg xmlns="http://www.w3.org/2000/svg" xmlns:xlink="http://www.w3.org/1999/xlink" id="Layer_1" x="0" y="0" version="1.1" viewBox="0 0 197.5 256" xml:space="preserve" style="enable-background:new 0 0 197.5 256"><style type="text/css">.st0{fill:#2a638c}.st1{stroke:#000;stroke-width:.25;stroke-miterlimit:10}.st1,.st2{fill:#fff}.st3{fill:#b3b3b3}</style><polygon points="197.5 0 197.5 76.8 167.3 107 167.3 256 52.1 256 0 203.9 0 0" class="st0"/><g><line x1="158.7" x2="157.6" y1="226.7" y2="225.5" class="st1"/><rect width="119" height="3.7" x="24.2" y="126.2" class="st2"/><rect width="119" height="3.7" x="24.2" y="76.4" class="st2"/><rect width="119" height="3.7" x="24.2" y="101.3" class="st2"/><rect width="119" height="3.7" x="24.2" y="51.5" class="st2"/><rect width="119" height="3.7" x="24.2" y="201.4" class="st2"/><rect width="119" height="3.7" x="24.2" y="151.7" class="st2"/><rect width="119" height="3.7" x="24.2" y="176.6" class="st2"/><rect width="119" height="3.7" x="24.2" y="26.6" class="st2"/><rect width="100.6" height="3.7" x="42.5" y="229" class="st2"/></g><polygon points="52.1 203.9 52.1 256 0 203.9" class="st3"/></svg>