<svg xmlns="http://www.w3.org/2000/svg" xmlns:xlink="http://www.w3.org/1999/xlink" id="Layer_1" x="0" y="0" version="1.1" viewBox="0 0 24.7 32" xml:space="preserve" style="enable-background:new 0 0 24.7 32"><style type="text/css">.st0{fill:#2a638c}.st1{stroke:#000;stroke-width:.25;stroke-miterlimit:10}.st1,.st2{fill:#f2f2f2}.st3{fill:#b3b3b3}</style><polygon points="24.7 0 24.7 9.6 20.9 13.4 20.9 32 6.5 32 0 25.5 0 0" class="st0"/><line x1="19.8" x2="19.7" y1="28.3" y2="28.2" class="st1"/><rect width="14.9" height=".5" x="3" y="15.8" class="st2"/><rect width="14.9" height=".5" x="3" y="9.5" class="st2"/><rect width="14.9" height=".5" x="3" y="12.7" class="st2"/><rect width="14.9" height=".5" x="3" y="6.4" class="st2"/><rect width="14.9" height=".5" x="3" y="25.2" class="st2"/><rect width="14.9" height=".5" x="3" y="19" class="st2"/><rect width="14.9" height=".5" x="3" y="22.1" class="st2"/><rect width="14.9" height=".5" x="3" y="3.3" class="st2"/><rect width="12.6" height=".5" x="5.3" y="28.6" class="st2"/><polygon points="6.5 25.5 6.5 32 0 25.5" class="st3"/></svg>