<?xml version="1.0" encoding="utf-8"?>
<!-- Generator: Adobe Illustrator 21.0.0, SVG Export Plug-In . SVG Version: 6.00 Build 0)  -->
<svg version="1.1" id="Layer_1" xmlns="http://www.w3.org/2000/svg" xmlns:xlink="http://www.w3.org/1999/xlink" x="0px" y="0px"
	 viewBox="0 0 714 512" style="enable-background:new 0 0 714 512;" xml:space="preserve">
<style type="text/css">
	.st0{fill:#E38612;}
	.st1{fill:#FFFFFF;}
</style>
<g>
	<path class="st0" d="M267.3,69.9c-21.8,0-42.7-8.7-58.2-24.1L163.3,0H0v512l205.9-205.9c13.2-13.2,31.2-20.7,49.9-20.7H512V69.9
		H267.3z"/>
	<path class="st0" d="M708.9,315.1L512,512H0l94.5-94.5l36.9-36.9l74.5-74.5c1-1,2-2,3-2.8c10.4-9.3,23.3-15.2,36.9-17.1
		c3.3-0.5,6.6-0.7,10-0.7h440.8C712.1,285.5,719.8,304.1,708.9,315.1z"/>
</g>
<path class="st1" d="M484.9,116.6v168.8H255.8c-3.4,0-6.7,0.2-10,0.7c-13.7,1.9-26.5,7.8-36.9,17.1c-1.1,0.9-2.1,1.9-3,2.8
	l-74.5,74.5l-36.9,36.9l-64.8,64.8h-2.6V116.6H484.9z"/>
<path d="M266.2,151.2v134.3h-10.4c-3.4,0-6.7,0.2-10,0.7v-135H266.2z"/>
<polygon points="151.7,151.2 151.7,360.3 131.4,380.6 131.4,151.2 "/>
<path d="M256,447.8"/>
<path d="M141.5,447.8"/>
<path d="M141.5,447.8"/>
<path d="M27.1,447.8"/>
<polygon points="94.5,151.2 94.5,417.5 74.1,437.9 74.1,151.2 "/>
<path d="M208.9,151.2v152.1c-1.1,0.9-2.1,1.9-3,2.8l-17.3,17.3V151.2H208.9z"/>
<rect x="417.5" y="151.2" width="20.3" height="134.3"/>
<rect x="303" y="151.2" width="20.3" height="134.3"/>
<path d="M256,447.8"/>
<path d="M256,151.2"/>
<rect x="360.3" y="151.2" width="20.3" height="134.3"/>
</svg>
