<svg xmlns="http://www.w3.org/2000/svg" xmlns:xlink="http://www.w3.org/1999/xlink" id="Layer_1" x="0" y="0" version="1.1" viewBox="0 0 395 512" xml:space="preserve" style="enable-background:new 0 0 395 512"><style type="text/css">.st0{fill:#163143}.st1{stroke:#000;stroke-width:.25;stroke-miterlimit:10}.st1,.st2{fill:#fff}.st3{fill:#b3b3b3}</style><polygon points="395 0 395 153.6 334.6 213.9 334.6 512 104.2 512 0 407.8 0 0" class="st0"/><g><line x1="317.4" x2="315.1" y1="453.3" y2="451" class="st1"/><rect width="238" height="7.3" x="48.3" y="252.3" class="st2"/><rect width="238" height="7.3" x="48.3" y="152.8" class="st2"/><rect width="238" height="7.3" x="48.3" y="202.6" class="st2"/><rect width="238" height="7.3" x="48.3" y="103" class="st2"/><rect width="238" height="7.3" x="48.3" y="402.9" class="st2"/><rect width="238" height="7.3" x="48.3" y="303.3" class="st2"/><rect width="238" height="7.3" x="48.3" y="353.1" class="st2"/><rect width="238" height="7.3" x="48.3" y="53.2" class="st2"/><rect width="201.3" height="7.3" x="85" y="458" class="st2"/></g><polygon points="104.2 407.8 104.2 512 0 407.8" class="st3"/></svg>