<svg xmlns="http://www.w3.org/2000/svg" xmlns:xlink="http://www.w3.org/1999/xlink" id="Layer_1" x="0" y="0" version="1.1" viewBox="0 0 49.4 64" xml:space="preserve" style="enable-background:new 0 0 49.4 64"><style type="text/css">.st0{fill:#3fd8c9}.st1{stroke:#000;stroke-width:.25;stroke-miterlimit:10}.st1,.st2{fill:#666}.st3{fill:#b3b3b3}</style><polygon points="49.4 0 49.4 19.2 41.8 26.7 41.8 64 13 64 0 51 0 0" class="st0"/><line x1="39.7" x2="39.4" y1="56.7" y2="56.4" class="st1"/><rect width="29.8" height=".9" x="6" y="31.5" class="st2"/><rect width="29.8" height=".9" x="6" y="19.1" class="st2"/><rect width="29.8" height=".9" x="6" y="25.3" class="st2"/><rect width="29.8" height=".9" x="6" y="12.9" class="st2"/><rect width="29.8" height=".9" x="6" y="50.4" class="st2"/><rect width="29.8" height=".9" x="6" y="37.9" class="st2"/><rect width="29.8" height=".9" x="6" y="44.1" class="st2"/><rect width="29.8" height=".9" x="6" y="6.7" class="st2"/><rect width="25.2" height=".9" x="10.6" y="57.2" class="st2"/><polygon points="13 51 13 64 0 51" class="st3"/></svg>