<?xml version="1.0" encoding="utf-8"?>
<!-- Generator: Adobe Illustrator 21.0.0, SVG Export Plug-In . SVG Version: 6.00 Build 0)  -->
<svg version="1.1" id="Layer_1" xmlns="http://www.w3.org/2000/svg" xmlns:xlink="http://www.w3.org/1999/xlink" x="0px" y="0px"
	 viewBox="0 0 49.4 64" style="enable-background:new 0 0 49.4 64;" xml:space="preserve">
<style type="text/css">
	.st0{fill:#2A638C;}
	.st1{fill:#F2F2F2;stroke:#000000;stroke-width:0.25;stroke-miterlimit:10;}
	.st2{fill:#F2F2F2;}
	.st3{fill:#B3B3B3;}
</style>
<polygon class="st0" points="49.4,0 49.4,19.2 41.8,26.7 41.8,64 13,64 0,51 0,0 "/>
<line class="st1" x1="39.7" y1="56.7" x2="39.4" y2="56.4"/>
<rect x="6" y="31.5" class="st2" width="29.8" height="0.9"/>
<rect x="6" y="19.1" class="st2" width="29.8" height="0.9"/>
<rect x="6" y="25.3" class="st2" width="29.8" height="0.9"/>
<rect x="6" y="12.9" class="st2" width="29.8" height="0.9"/>
<rect x="6" y="50.4" class="st2" width="29.8" height="0.9"/>
<rect x="6" y="37.9" class="st2" width="29.8" height="0.9"/>
<rect x="6" y="44.1" class="st2" width="29.8" height="0.9"/>
<rect x="6" y="6.7" class="st2" width="29.8" height="0.9"/>
<rect x="10.6" y="57.2" class="st2" width="25.2" height="0.9"/>
<polygon class="st3" points="13,51 13,64 0,51 "/>
</svg>
