<?xml version="1.0" encoding="utf-8"?>
<!-- Generator: Adobe Illustrator 21.0.0, SVG Export Plug-In . SVG Version: 6.00 Build 0)  -->
<svg version="1.1" id="Layer_1" xmlns="http://www.w3.org/2000/svg" xmlns:xlink="http://www.w3.org/1999/xlink" x="0px" y="0px"
	 viewBox="0 0 89.3 64" style="enable-background:new 0 0 89.3 64;" xml:space="preserve">
<style type="text/css">
	.st0{fill:#E38612;}
	.st1{fill:#FFFFFF;}
</style>
<g>
	<path class="st0" d="M33.4,8.7c-2.7,0-5.3-1.1-7.3-3L20.4,0H0v64l25.7-25.7c1.7-1.7,3.9-2.6,6.2-2.6h32V8.7H33.4z"/>
	<path class="st0" d="M88.6,39.4L64,64H0l11.8-11.8l4.6-4.6l9.3-9.3c0.1-0.1,0.2-0.2,0.4-0.4c1.3-1.2,2.9-1.9,4.6-2.1
		c0.4-0.1,0.8-0.1,1.2-0.1h55.1C89,35.7,90,38,88.6,39.4z"/>
</g>
<path class="st1" d="M60.6,14.6v21.1H32c-0.4,0-0.8,0-1.2,0.1c-1.7,0.2-3.3,1-4.6,2.1c-0.1,0.1-0.3,0.2-0.4,0.4l-9.3,9.3l-4.6,4.6
	l-8.1,8.1H3.4V14.6H60.6z"/>
<path d="M33.3,18.9v16.8H32c-0.4,0-0.8,0-1.2,0.1V18.9H33.3z"/>
<polygon points="19,18.9 19,45 16.4,47.6 16.4,18.9 "/>
<path d="M32,56"/>
<path d="M17.7,56"/>
<path d="M17.7,56"/>
<path d="M3.4,56"/>
<polygon points="11.8,18.9 11.8,52.2 9.3,54.7 9.3,18.9 "/>
<path d="M26.1,18.9v19c-0.1,0.1-0.3,0.2-0.4,0.4l-2.2,2.2V18.9H26.1z"/>
<rect x="52.2" y="18.9" width="2.5" height="16.8"/>
<rect x="37.9" y="18.9" width="2.5" height="16.8"/>
<path d="M32,56"/>
<path d="M32,18.9"/>
<rect x="45" y="18.9" width="2.5" height="16.8"/>
</svg>
