<?xml version="1.0" encoding="utf-8"?>
<!-- Generator: Adobe Illustrator 21.0.0, SVG Export Plug-In . SVG Version: 6.00 Build 0)  -->
<svg version="1.1" id="Layer_1" xmlns="http://www.w3.org/2000/svg" xmlns:xlink="http://www.w3.org/1999/xlink" x="0px" y="0px"
	 viewBox="0 0 98.7 128" style="enable-background:new 0 0 98.7 128;" xml:space="preserve">
<style type="text/css">
	.st0{fill:#E38612;}
	.st1{fill:#FFFFFF;stroke:#000000;stroke-width:0.25;stroke-miterlimit:10;}
	.st2{fill:#FFFFFF;}
	.st3{fill:#B3B3B3;}
</style>
<polygon class="st0" points="98.7,0 98.7,38.4 83.7,53.5 83.7,128 26.1,128 0,101.9 0,0 "/>
<g>
	<line class="st1" x1="79.3" y1="113.3" x2="78.8" y2="112.8"/>
	<rect x="12.1" y="63.1" class="st2" width="59.5" height="1.8"/>
	<rect x="12.1" y="38.2" class="st2" width="59.5" height="1.8"/>
	<rect x="12.1" y="50.6" class="st2" width="59.5" height="1.8"/>
	<rect x="12.1" y="25.8" class="st2" width="59.5" height="1.8"/>
	<rect x="12.1" y="100.7" class="st2" width="59.5" height="1.8"/>
	<rect x="12.1" y="75.8" class="st2" width="59.5" height="1.8"/>
	<rect x="12.1" y="88.3" class="st2" width="59.5" height="1.8"/>
	<rect x="12.1" y="13.3" class="st2" width="59.5" height="1.8"/>
	<rect x="21.3" y="114.5" class="st2" width="50.3" height="1.8"/>
</g>
<polygon class="st3" points="26.1,101.9 26.1,128 0,101.9 "/>
</svg>
