<?xml version="1.0" encoding="utf-8"?>
<!-- Generator: Adobe Illustrator 21.0.0, SVG Export Plug-In . SVG Version: 6.00 Build 0)  -->
<svg version="1.1" id="Layer_1" xmlns="http://www.w3.org/2000/svg" xmlns:xlink="http://www.w3.org/1999/xlink" x="0px" y="0px"
	 viewBox="0 0 178.5 128" style="enable-background:new 0 0 178.5 128;" xml:space="preserve">
<style type="text/css">
	.st0{fill:#2A638C;}
	.st1{fill:#FFFFFF;}
</style>
<g>
	<path class="st0" d="M66.8,17.5c-5.5,0-10.7-2.2-14.5-6L40.8,0H0v128l51.5-51.5c3.3-3.3,7.8-5.2,12.5-5.2h64V17.5H66.8z"/>
	<path class="st0" d="M177.2,78.8L128,128H0l23.6-23.6l9.2-9.2l18.6-18.6c0.2-0.2,0.5-0.5,0.8-0.7c2.6-2.3,5.8-3.8,9.2-4.3
		c0.8-0.1,1.6-0.2,2.5-0.2h110.2C178,71.4,180,76,177.2,78.8z"/>
</g>
<path class="st1" d="M121.2,29.2v42.2H63.9c-0.8,0-1.7,0.1-2.5,0.2c-3.4,0.5-6.6,2-9.2,4.3c-0.3,0.2-0.5,0.5-0.8,0.7L32.8,95.2
	l-9.2,9.2L7.4,120.6H6.8V29.2H121.2z"/>
<path d="M66.5,37.8v33.6h-2.6c-0.8,0-1.7,0.1-2.5,0.2V37.8H66.5z"/>
<polygon points="37.9,37.8 37.9,90.1 32.8,95.2 32.8,37.8 "/>
<path d="M64,111.9"/>
<path d="M35.4,111.9"/>
<path d="M35.4,111.9"/>
<path d="M6.8,111.9"/>
<polygon points="23.6,37.8 23.6,104.4 18.5,109.5 18.5,37.8 "/>
<path d="M52.2,37.8v38c-0.3,0.2-0.5,0.5-0.8,0.7l-4.3,4.3V37.8H52.2z"/>
<rect x="104.4" y="37.8" width="5.1" height="33.6"/>
<rect x="75.8" y="37.8" width="5.1" height="33.6"/>
<path d="M64,111.9"/>
<path d="M64,37.8"/>
<rect x="90.1" y="37.8" width="5.1" height="33.6"/>
</svg>
