<?xml version="1.0" encoding="utf-8"?>
<!-- Generator: Adobe Illustrator 21.0.0, SVG Export Plug-In . SVG Version: 6.00 Build 0)  -->
<svg version="1.1" id="Layer_1" xmlns="http://www.w3.org/2000/svg" xmlns:xlink="http://www.w3.org/1999/xlink" x="0px" y="0px"
	 viewBox="0 0 22.3 16" style="enable-background:new 0 0 22.3 16;" xml:space="preserve">
<style type="text/css">
	.st0{fill:#E38612;}
	.st1{fill:#FFFFFF;}
</style>
<path class="st0" d="M8.4,2.2C7.7,2.2,7,1.9,6.5,1.4L5.1,0H0v16l6.4-6.4c0.4-0.4,1-0.6,1.6-0.6h8V2.2H8.4z"/>
<path class="st1" d="M15.2,3.6v5.3H8c-0.1,0-0.2,0-0.3,0C7.3,9,6.9,9.2,6.5,9.5c0,0-0.1,0.1-0.1,0.1l-2.3,2.3L3,13l-2,2H0.8V3.6
	H15.2z"/>
<path d="M8.3,4.7v4.2H8c-0.1,0-0.2,0-0.3,0V4.7H8.3z"/>
<polygon points="4.7,4.7 4.7,11.3 4.1,11.9 4.1,4.7 "/>
<path d="M8,14"/>
<path d="M4.4,14"/>
<path d="M4.4,14"/>
<path d="M0.8,14"/>
<polygon points="3,4.7 3,13 2.3,13.7 2.3,4.7 "/>
<path d="M6.5,4.7v4.8c0,0-0.1,0.1-0.1,0.1l-0.5,0.5V4.7H6.5z"/>
<rect x="13" y="4.7" width="0.6" height="4.2"/>
<rect x="9.5" y="4.7" width="0.6" height="4.2"/>
<path d="M8,14"/>
<path d="M8,4.7"/>
<rect x="11.3" y="4.7" width="0.6" height="4.2"/>
<path class="st0" d="M22.2,9.8L16,16H0l3-3l1.2-1.2l2.3-2.3c0,0,0.1-0.1,0.1-0.1C6.9,9.2,7.3,9,7.7,8.9c0.1,0,0.2,0,0.3,0h13.8
	C22.3,8.9,22.5,9.5,22.2,9.8z"/>
</svg>
