<?xml version="1.0" encoding="utf-8"?>
<!-- Generator: Adobe Illustrator 21.0.0, SVG Export Plug-In . SVG Version: 6.00 Build 0)  -->
<svg version="1.1" id="Layer_1" xmlns="http://www.w3.org/2000/svg" xmlns:xlink="http://www.w3.org/1999/xlink" x="0px" y="0px"
	 viewBox="0 0 12.3 16" style="enable-background:new 0 0 12.3 16;" xml:space="preserve">
<style type="text/css">
	.st0{fill:#2A638C;}
	.st1{fill:#F2F2F2;stroke:#000000;stroke-width:0.25;stroke-miterlimit:10;}
	.st2{fill:#F2F2F2;}
	.st3{fill:#B3B3B3;}
</style>
<polygon class="st0" points="12.3,0 12.3,4.8 10.5,6.7 10.5,16 3.3,16 0,12.7 0,0 "/>
<line class="st1" x1="9.9" y1="14.2" x2="9.8" y2="14.1"/>
<rect x="1.5" y="7.9" class="st2" width="7.4" height="0.2"/>
<rect x="1.5" y="4.8" class="st2" width="7.4" height="0.2"/>
<rect x="1.5" y="6.3" class="st2" width="7.4" height="0.2"/>
<rect x="1.5" y="3.2" class="st2" width="7.4" height="0.2"/>
<rect x="1.5" y="12.6" class="st2" width="7.4" height="0.2"/>
<rect x="1.5" y="9.5" class="st2" width="7.4" height="0.2"/>
<rect x="1.5" y="11" class="st2" width="7.4" height="0.2"/>
<rect x="1.5" y="1.7" class="st2" width="7.4" height="0.2"/>
<rect x="2.7" y="14.3" class="st2" width="6.3" height="0.2"/>
<polygon class="st3" points="3.3,12.7 3.3,16 0,12.7 "/>
</svg>
