<?xml version="1.0" encoding="utf-8"?>
<!-- Generator: Adobe Illustrator 21.0.0, SVG Export Plug-In . SVG Version: 6.00 Build 0)  -->
<svg version="1.1" id="Layer_1" xmlns="http://www.w3.org/2000/svg" xmlns:xlink="http://www.w3.org/1999/xlink" x="0px" y="0px"
	 viewBox="0 0 197.5 256" style="enable-background:new 0 0 197.5 256;" xml:space="preserve">
<style type="text/css">
	.st0{fill:#2A638C;}
	.st1{fill:#FFFFFF;stroke:#000000;stroke-width:0.25;stroke-miterlimit:10;}
	.st2{fill:#FFFFFF;}
	.st3{fill:#B3B3B3;}
</style>
<polygon class="st0" points="197.5,0 197.5,76.8 167.3,107 167.3,256 52.1,256 0,203.9 0,0 "/>
<g>
	<line class="st1" x1="158.7" y1="226.7" x2="157.6" y2="225.5"/>
	<rect x="24.2" y="126.2" class="st2" width="119" height="3.7"/>
	<rect x="24.2" y="76.4" class="st2" width="119" height="3.7"/>
	<rect x="24.2" y="101.3" class="st2" width="119" height="3.7"/>
	<rect x="24.2" y="51.5" class="st2" width="119" height="3.7"/>
	<rect x="24.2" y="201.4" class="st2" width="119" height="3.7"/>
	<rect x="24.2" y="151.7" class="st2" width="119" height="3.7"/>
	<rect x="24.2" y="176.6" class="st2" width="119" height="3.7"/>
	<rect x="24.2" y="26.6" class="st2" width="119" height="3.7"/>
	<rect x="42.5" y="229" class="st2" width="100.6" height="3.7"/>
</g>
<polygon class="st3" points="52.1,203.9 52.1,256 0,203.9 "/>
</svg>
