<?xml version="1.0" encoding="utf-8"?>
<!-- Generator: Adobe Illustrator 21.0.0, SVG Export Plug-In . SVG Version: 6.00 Build 0)  -->
<svg version="1.1" id="Layer_1" xmlns="http://www.w3.org/2000/svg" xmlns:xlink="http://www.w3.org/1999/xlink" x="0px" y="0px"
	 viewBox="0 0 44.6 32" style="enable-background:new 0 0 44.6 32;" xml:space="preserve">
<style type="text/css">
	.st0{fill:#3FD8C9;}
	.st1{fill:#FFFFFF;}
</style>
<path class="st0" d="M16.7,4.4c-1.4,0-2.7-0.5-3.6-1.5L10.2,0H0v32l12.9-12.9c0.8-0.8,2-1.3,3.1-1.3h16V4.4H16.7z"/>
<path class="st1" d="M30.3,7.3v10.6H16c-0.2,0-0.4,0-0.6,0c-0.9,0.1-1.7,0.5-2.3,1.1c-0.1,0.1-0.1,0.1-0.2,0.2l-4.7,4.7l-2.3,2.3
	l-4,4H1.7V7.3H30.3z"/>
<path d="M16.6,9.4v8.4H16c-0.2,0-0.4,0-0.6,0V9.4H16.6z"/>
<polygon points="9.5,9.4 9.5,22.5 8.2,23.8 8.2,9.4 "/>
<path d="M16,28"/>
<path d="M8.8,28"/>
<path d="M8.8,28"/>
<path d="M1.7,28"/>
<polygon points="5.9,9.4 5.9,26.1 4.6,27.4 4.6,9.4 "/>
<path d="M13.1,9.4V19c-0.1,0.1-0.1,0.1-0.2,0.2l-1.1,1.1V9.4H13.1z"/>
<rect x="26.1" y="9.4" width="1.3" height="8.4"/>
<rect x="18.9" y="9.4" width="1.3" height="8.4"/>
<path d="M16,28"/>
<path d="M16,9.4"/>
<rect x="22.5" y="9.4" width="1.3" height="8.4"/>
<path class="st0" d="M44.3,19.7L32,32H0l5.9-5.9l2.3-2.3l4.7-4.7c0.1-0.1,0.1-0.1,0.2-0.2c0.7-0.6,1.5-0.9,2.3-1.1
	c0.2,0,0.4,0,0.6,0h27.6C44.5,17.8,45,19,44.3,19.7z"/>
</svg>
