<?xml version="1.0" encoding="utf-8"?>
<!-- Generator: Adobe Illustrator 21.0.0, SVG Export Plug-In . SVG Version: 6.00 Build 0)  -->
<svg version="1.1" id="Layer_1" xmlns="http://www.w3.org/2000/svg" xmlns:xlink="http://www.w3.org/1999/xlink" x="0px" y="0px"
	 viewBox="0 0 24.7 32" style="enable-background:new 0 0 24.7 32;" xml:space="preserve">
<style type="text/css">
	.st0{fill:#E38612;}
	.st1{fill:#F2F2F2;stroke:#000000;stroke-width:0.25;stroke-miterlimit:10;}
	.st2{fill:#F2F2F2;}
	.st3{fill:#B3B3B3;}
</style>
<polygon class="st0" points="24.7,0 24.7,9.6 20.9,13.4 20.9,32 6.5,32 0,25.5 0,0 "/>
<line class="st1" x1="19.8" y1="28.3" x2="19.7" y2="28.2"/>
<rect x="3" y="15.8" class="st2" width="14.9" height="0.5"/>
<rect x="3" y="9.5" class="st2" width="14.9" height="0.5"/>
<rect x="3" y="12.7" class="st2" width="14.9" height="0.5"/>
<rect x="3" y="6.4" class="st2" width="14.9" height="0.5"/>
<rect x="3" y="25.2" class="st2" width="14.9" height="0.5"/>
<rect x="3" y="19" class="st2" width="14.9" height="0.5"/>
<rect x="3" y="22.1" class="st2" width="14.9" height="0.5"/>
<rect x="3" y="3.3" class="st2" width="14.9" height="0.5"/>
<rect x="5.3" y="28.6" class="st2" width="12.6" height="0.5"/>
<polygon class="st3" points="6.5,25.5 6.5,32 0,25.5 "/>
</svg>
