<?xml version="1.0" encoding="utf-8"?>
<!-- Generator: Adobe Illustrator 21.0.0, SVG Export Plug-In . SVG Version: 6.00 Build 0)  -->
<svg version="1.1" id="Layer_1" xmlns="http://www.w3.org/2000/svg" xmlns:xlink="http://www.w3.org/1999/xlink" x="0px" y="0px"
	 viewBox="0 0 395 512" style="enable-background:new 0 0 395 512;" xml:space="preserve">
<style type="text/css">
	.st0{fill:#3FD8C9;}
	.st1{fill:#666666;stroke:#000000;stroke-width:0.25;stroke-miterlimit:10;}
	.st2{fill:#666666;}
	.st3{fill:#B3B3B3;}
</style>
<polygon class="st0" points="395,0 395,153.6 334.6,213.9 334.6,512 104.2,512 0,407.8 0,0 "/>
<g>
	<line class="st1" x1="317.4" y1="453.3" x2="315.1" y2="451"/>
	<rect x="48.3" y="252.3" class="st2" width="238" height="7.3"/>
	<rect x="48.3" y="152.8" class="st2" width="238" height="7.3"/>
	<rect x="48.3" y="202.6" class="st2" width="238" height="7.3"/>
	<rect x="48.3" y="103" class="st2" width="238" height="7.3"/>
	<rect x="48.3" y="402.9" class="st2" width="238" height="7.3"/>
	<rect x="48.3" y="303.3" class="st2" width="238" height="7.3"/>
	<rect x="48.3" y="353.1" class="st2" width="238" height="7.3"/>
	<rect x="48.3" y="53.2" class="st2" width="238" height="7.3"/>
	<rect x="85" y="458" class="st2" width="201.3" height="7.3"/>
</g>
<polygon class="st3" points="104.2,407.8 104.2,512 0,407.8 "/>
</svg>
